<svg width="1920" height="372" viewBox="0 0 1440 372" fill="none" xmlns="http://www.w3.org/2000/svg" preserveAspectRatio="none">
<path d="M794.031 196.978C432.65 221.299 166.231 -112.955 -53.9924 40.4233C-274.216 193.801 -309.992 -97.464 -301.992 59.8788C-293.993 217.222 -253.992 327.879 -253.992 327.879C-253.992 327.879 -215.992 425.991 -76.9925 327.879C62.0075 229.766 138.187 220.423 278.008 220.423C546.893 220.423 685.137 492.007 1006.77 165.692C1199.44 -29.781 1247 115.461 1455 183.461V51.4614C1031 -104.539 1155.41 172.656 794.031 196.978Z" fill="url(#paint0_linear)"/>
<path d="M794.031 196.978C432.65 221.299 166.231 -112.955 -53.9924 40.4233C-274.216 193.801 -309.992 -97.464 -301.992 59.8788C-293.993 217.222 -253.992 327.879 -253.992 327.879C-253.992 327.879 -215.992 425.991 -76.9925 327.879C62.0075 229.766 138.187 220.423 278.008 220.423C546.893 220.423 685.137 492.007 1006.77 165.692C1199.44 -29.781 1247 115.461 1455 183.461V51.4614C1031 -104.539 1155.41 172.656 794.031 196.978Z" fill="url(#paint1_linear)"/>
<defs>
<linearGradient id="paint0_linear" x1="1363.01" y1="-269.807" x2="-76.462" y2="152.484" gradientUnits="userSpaceOnUse">
<stop offset="0.0372565" stop-color="#156EC0"/>
<stop offset="0.474139" stop-color="#15C0C0"/>
<stop offset="0.951892" stop-color="#0DA646"/>
</linearGradient>
<linearGradient id="paint1_linear" x1="-27" y1="134" x2="890.093" y2="315.242" gradientUnits="userSpaceOnUse">
<stop stop-opacity="0.05"/>
<stop offset="1" stop-color="white" stop-opacity="0"/>
</linearGradient>
</defs>
</svg>
