<svg width="1920" height="736" viewBox="0 0 1440 736" fill="none" xmlns="http://www.w3.org/2000/svg" preserveAspectRatio="none">
<path d="M332 144.001C189.669 26.2099 -140 0 -140 0V736C-140 736 108.047 520 276 520C484 520 484 648.001 724 648.001C988 648.001 1121.79 320 1379 320C1619 320 1628 338 1628 338V176C1628 176 1479 194.999 1279 246C1079.61 296.845 852 464 724 464C539.567 464 564 336 332 144.001Z" fill="url(#paint0_linear)"/>
<path d="M332 144.001C189.669 26.2099 -140 0 -140 0V736C-140 736 108.047 520 276 520C484 520 484 648.001 724 648.001C988 648.001 1121.79 320 1379 320C1619 320 1628 338 1628 338V176C1628 176 1479 194.999 1279 246C1079.61 296.845 852 464 724 464C539.567 464 564 336 332 144.001Z" fill="url(#paint1_linear)"/>
<path d="M332 144.001C189.669 26.2099 -140 0 -140 0V736C-140 736 108.047 520 276 520C484 520 484 648.001 724 648.001C988 648.001 1121.79 320 1379 320C1619 320 1628 338 1628 338V176C1628 176 1479 194.999 1279 246C1079.61 296.845 852 464 724 464C539.567 464 564 336 332 144.001Z" fill="url(#paint2_linear)"/>
<defs>
<linearGradient id="paint0_linear" x1="-140" y1="83" x2="1740" y2="51" gradientUnits="userSpaceOnUse">
<stop stop-color="#0072B3"/>
<stop offset="1" stop-color="#EE17F2"/>
</linearGradient>
<linearGradient id="paint1_linear" x1="-99.9999" y1="-77.0006" x2="964" y2="290.999" gradientUnits="userSpaceOnUse">
<stop offset="0.200568" stop-opacity="0.2"/>
<stop offset="1" stop-color="white" stop-opacity="0"/>
</linearGradient>
<linearGradient id="paint2_linear" x1="1740" y1="-165" x2="916" y2="179" gradientUnits="userSpaceOnUse">
<stop offset="0.182292" stop-color="white" stop-opacity="0.26"/>
<stop offset="1" stop-color="white" stop-opacity="0"/>
</linearGradient>
</defs>
</svg>
