<svg max-width="1920" height="736" viewBox="0 0 1440 736" fill="none" xmlns="http://www.w3.org/2000/svg" preserveAspectRatio="none">
<path d="M313 144.001C170.669 26.2099 -159 0 -159 0V736C-159 736 89.0473 520 257 520C465 520 465 648.001 705 648.001C969 648.001 1102.79 320 1360 320C1600 320 1609 338 1609 338V176C1609 176 1460 194.999 1260 246C1060.61 296.845 833 464 705 464C520.567 464 545 336 313 144.001Z" fill="url(#paint0_linear)"/>
<path d="M313 144.001C170.669 26.2099 -159 0 -159 0V736C-159 736 89.0473 520 257 520C465 520 465 648.001 705 648.001C969 648.001 1102.79 320 1360 320C1600 320 1609 338 1609 338V176C1609 176 1460 194.999 1260 246C1060.61 296.845 833 464 705 464C520.567 464 545 336 313 144.001Z" fill="url(#paint1_linear)"/>
<path d="M313 144.001C170.669 26.2099 -159 0 -159 0V736C-159 736 89.0473 520 257 520C465 520 465 648.001 705 648.001C969 648.001 1102.79 320 1360 320C1600 320 1609 338 1609 338V176C1609 176 1460 194.999 1260 246C1060.61 296.845 833 464 705 464C520.567 464 545 336 313 144.001Z" fill="url(#paint2_linear)"/>
<defs>
<linearGradient id="paint0_linear" x1="-159" y1="83" x2="1721" y2="51" gradientUnits="userSpaceOnUse">
<stop stop-color="#00B332"/>
<stop offset="1" stop-color="#17D8F2"/>
</linearGradient>
<linearGradient id="paint1_linear" x1="-119" y1="-77.0006" x2="945" y2="290.999" gradientUnits="userSpaceOnUse">
<stop stop-opacity="0.2"/>
<stop offset="1" stop-color="white" stop-opacity="0"/>
</linearGradient>
<linearGradient id="paint2_linear" x1="1721" y1="-165" x2="897" y2="179" gradientUnits="userSpaceOnUse">
<stop offset="0.182292" stop-color="white" stop-opacity="0.26"/>
<stop offset="1" stop-color="white" stop-opacity="0"/>
</linearGradient>
</defs>
</svg>
