<svg max-width="1920" height="413" viewBox="0 0 1440 413" fill="none" xmlns="http://www.w3.org/2000/svg" preserveAspectRatio="none">
<path d="M905.031 237.516C543.65 261.838 277.231 -72.416 57.0076 80.9619C-163.216 234.34 -198.992 -56.9254 -190.992 100.417C-182.993 257.76 -142.992 368.417 -142.992 368.417C-142.992 368.417 -104.992 466.53 34.0075 368.417C173.008 270.305 249.187 260.962 389.008 260.962C657.893 260.962 796.137 532.545 1117.77 206.231C1310.44 10.7576 1382.65 86.3598 1587.01 112.962V24.9618C1155.61 -87.1268 1266.41 213.194 905.031 237.516Z" fill="url(#paint0_linear)"/>
<path d="M905.031 237.516C543.65 261.838 277.231 -72.416 57.0076 80.9619C-163.216 234.34 -198.992 -56.9254 -190.992 100.417C-182.993 257.76 -142.992 368.417 -142.992 368.417C-142.992 368.417 -104.992 466.53 34.0075 368.417C173.008 270.305 249.187 260.962 389.008 260.962C657.893 260.962 796.137 532.545 1117.77 206.231C1310.44 10.7576 1382.65 86.3598 1587.01 112.962V24.9618C1155.61 -87.1268 1266.41 213.194 905.031 237.516Z" fill="url(#paint1_linear)"/>
<defs>
<linearGradient id="paint0_linear" x1="1474.01" y1="-229.269" x2="34.538" y2="193.022" gradientUnits="userSpaceOnUse">
<stop offset="0.572917" stop-color="#15C0C0"/>
<stop offset="1" stop-color="#1565C0"/>
</linearGradient>
<linearGradient id="paint1_linear" x1="146.398" y1="42.0425" x2="1000.89" y2="355.687" gradientUnits="userSpaceOnUse">
<stop stop-opacity="0.05"/>
<stop offset="0.947917" stop-color="white" stop-opacity="0"/>
</linearGradient>
</defs>
</svg>
