<svg max-width="1920" height="963" viewBox="0 0 1440 963" fill="none" xmlns="http://www.w3.org/2000/svg" preserveAspectRatio="none">
<path d="M62 836C-43.6816 851.852 -228 776 -228 776V917C-228 917 -12 1004 96 937C318 785 419.382 619.799 728 533C944 488 1034 574.838 1256 533C1516 484 1712 333 1712 333L1650 0C1650 0 1462 188 1202 333C986.668 453.089 660 300 466 428C248.29 571.644 302 800 62 836Z" fill="url(#paint0_linear)"/>
<path d="M62 836C-43.6816 851.852 -228 776 -228 776V917C-228 917 -12 1004 96 937C318 785 419.382 619.799 728 533C944 488 1034 574.838 1256 533C1516 484 1712 333 1712 333L1650 0C1650 0 1462 188 1202 333C986.668 453.089 660 300 466 428C248.29 571.644 302 800 62 836Z" fill="url(#paint1_linear)"/>
<defs>
<linearGradient id="paint0_linear" x1="1688" y1="92" x2="-40.0005" y2="957" gradientUnits="userSpaceOnUse">
<stop offset="0.21481" stop-color="#FFD337"/>
<stop offset="0.645833" stop-color="#F23954"/>
<stop offset="0.970157" stop-color="#FF28C3"/>
</linearGradient>
<linearGradient id="paint1_linear" x1="170" y1="708" x2="868" y2="1012" gradientUnits="userSpaceOnUse">
<stop stop-opacity="0.26"/>
<stop offset="1" stop-color="white" stop-opacity="0"/>
</linearGradient>
</defs>
</svg>
